<?xml version="1.0" encoding="UTF-8" standalone="no"?><!-- Generator: Gravit.io --><svg xmlns="http://www.w3.org/2000/svg" xmlns:xlink="http://www.w3.org/1999/xlink" style="isolation:isolate" viewBox="0 0 512 512" width="512pt" height="512pt"><defs><clipPath id="_clipPath_ugllels12bkK1aS3EKE5sx1YVWcY3S5X"><rect width="512" height="512"/></clipPath></defs><g clip-path="url(#_clipPath_ugllels12bkK1aS3EKE5sx1YVWcY3S5X)"><rect width="512" height="512" style="fill:rgb(254,180,123)" fill-opacity="0"/><defs><linearGradient id="_lgradient_1" x1="-3.3306690738754696e-16" y1="2.7755575615628914e-16" x2="0.9999999999999993" y2="1.0000000000000004"><stop offset="1.6666666666666667%" style="stop-color:#FFA0B6"/><stop offset="97.5%" style="stop-color:#FE6D8E"/></linearGradient></defs><path d="M 99.84 0 L 412.16 0 C 467.263 0 512 44.737 512 99.84 L 512 412.16 C 512 467.263 467.263 512 412.16 512 L 99.84 512 C 44.737 512 0 467.263 0 412.16 L 0 99.84 C 0 44.737 44.737 0 99.84 0 Z" style="stroke:none;fill:url(#_lgradient_1);stroke-miterlimit:10;"/><path d=" M 345.795 350.436 L 345.795 350.436 L 345.795 350.436 Q 348.432 350.436 348.432 353.658 L 348.432 353.658 L 348.432 353.658 Q 348.432 356.881 346.308 360.104 L 346.308 360.104 L 346.308 360.104 Q 344.184 363.326 340.082 366.256 L 340.082 366.256 L 340.082 366.256 Q 329.975 373.287 318.622 373.287 L 318.622 373.287 L 318.622 373.287 Q 307.27 373.287 300.238 369.918 L 300.238 369.918 L 300.238 369.918 Q 293.207 366.549 287.201 360.909 L 287.201 360.909 L 287.201 360.909 Q 281.195 355.27 276.215 347.945 L 276.215 347.945 L 276.215 347.945 Q 271.234 340.621 266.84 332.711 L 266.84 332.711 L 258.197 316.891 L 258.197 316.891 Q 243.109 288.18 232.709 283.346 L 232.709 283.346 L 232.709 283.346 Q 202.973 363.18 168.988 371.969 L 168.988 371.969 L 168.988 371.969 Q 166.791 372.555 164.081 372.555 L 164.081 372.555 L 164.081 372.555 Q 161.371 372.555 159.101 371.676 L 159.101 371.676 L 159.101 371.676 Q 156.83 370.797 155.219 369.332 L 155.219 369.332 L 155.219 369.332 Q 151.85 366.549 151.85 363.399 L 151.85 363.399 L 151.85 363.399 Q 151.85 360.25 154.193 358.492 L 154.193 358.492 L 154.193 358.492 Q 179.535 339.889 205.316 262.691 L 205.316 262.691 L 205.316 262.691 Q 220.258 217.721 226.117 181.539 L 226.117 181.539 L 226.117 181.539 Q 227.729 171.432 227.729 166.012 L 227.729 166.012 L 227.729 166.012 Q 221.723 166.305 216.522 169.088 L 216.522 169.088 L 216.522 169.088 Q 211.322 171.871 207.66 174.215 L 207.66 174.215 L 207.66 174.215 Q 203.998 176.559 201.654 176.559 L 201.654 176.559 L 201.654 176.559 Q 199.311 176.559 196.601 175.094 L 196.601 175.094 L 196.601 175.094 Q 193.891 173.629 191.693 171.432 L 191.693 171.432 L 191.693 171.432 Q 186.566 166.305 186.566 162.35 L 186.566 162.35 L 186.566 162.35 Q 186.566 158.395 188.983 155.758 L 188.983 155.758 L 188.983 155.758 Q 191.4 153.121 195.063 151.217 L 195.063 151.217 L 195.063 151.217 Q 198.725 149.313 203.192 147.921 L 203.192 147.921 L 203.192 147.921 Q 207.66 146.529 211.908 145.797 L 211.908 145.797 L 211.908 145.797 Q 219.965 144.186 225.824 144.186 L 225.824 144.186 L 225.824 144.186 Q 231.684 144.186 238.129 146.017 L 238.129 146.017 L 238.129 146.017 Q 244.574 147.848 249.262 151.363 L 249.262 151.363 L 249.262 151.363 Q 259.516 158.834 259.516 169.82 L 259.516 169.82 L 259.516 169.82 Q 259.516 193.111 245.453 243.648 L 245.453 243.648 L 245.453 243.648 Q 240.912 260.055 235.199 276.461 L 235.199 276.461 L 235.199 276.461 Q 270.648 249.068 278.192 242.843 L 278.192 242.843 L 278.192 242.843 Q 285.736 236.617 294.818 227.828 L 294.818 227.828 L 294.818 227.828 Q 303.9 219.039 310.785 209.664 L 310.785 209.664 L 310.785 209.664 Q 325.727 189.156 325.727 168.502 L 325.727 168.502 L 325.727 168.502 Q 325.727 160.885 321.771 155.172 L 321.771 155.172 L 321.771 155.172 Q 320.6 153.268 320.6 151.51 L 320.6 151.51 L 320.6 151.51 Q 320.6 149.752 321.991 148.287 L 321.991 148.287 L 321.991 148.287 Q 323.383 146.822 325.434 145.797 L 325.434 145.797 L 325.434 145.797 Q 329.242 144.186 335.175 144.186 L 335.175 144.186 L 335.175 144.186 Q 341.107 144.186 345.868 146.749 L 345.868 146.749 L 345.868 146.749 Q 350.629 149.313 353.852 153.268 L 353.852 153.268 L 353.852 153.268 Q 360.15 161.324 360.15 172.53 L 360.15 172.53 L 360.15 172.53 Q 360.15 183.736 355.609 194.21 L 355.609 194.21 L 355.609 194.21 Q 351.068 204.684 343.524 213.912 L 343.524 213.912 L 343.524 213.912 Q 335.98 223.141 326.166 231.49 L 326.166 231.49 L 326.166 231.49 Q 316.352 239.84 305.805 247.457 L 305.805 247.457 L 284.418 262.691 L 284.418 262.691 Q 273.871 270.016 264.789 277.34 L 264.789 277.34 L 264.789 277.34 Q 275.482 285.689 289.691 306.49 L 289.691 306.49 L 300.971 323.336 L 300.971 323.336 Q 313.129 341.939 320.6 347.726 L 320.6 347.726 L 320.6 347.726 Q 328.07 353.512 332.978 353.512 L 332.978 353.512 L 332.978 353.512 Q 337.885 353.512 340.961 351.974 L 340.961 351.974 L 340.961 351.974 Q 344.037 350.436 345.795 350.436 Z  M 266.658 93.42 C 263.739 89.96 260.015 88.214 255.588 88.23 C 250.078 88.25 245.286 90.807 241.35 95.832 C 237.477 100.774 235.526 106.827 235.55 113.824 C 235.57 119.353 237.039 123.929 239.917 127.426 C 242.835 130.975 246.509 132.767 250.838 132.751 C 256.123 132.732 260.888 130.033 264.998 124.726 C 269.037 119.515 271.072 113.396 271.048 106.54 C 271.03 101.273 269.553 96.859 266.658 93.42 Z " fill-rule="evenodd" fill="rgb(255,255,255)"/></g></svg>